<svg width="21" height="21" viewBox="0 0 21 21" fill="none" xmlns="http://www.w3.org/2000/svg">
<path d="M10.5 21C16.299 21 21 16.299 21 10.5C21 4.70101 16.299 0 10.5 0C4.70101 0 0 4.70101 0 10.5C0 16.299 4.70101 21 10.5 21Z" fill="#6C27B3"/>
<path d="M15.3689 5.452C14.1144 5.61081 12.8063 5.60527 11.4899 5.47993C9.65146 5.33851 6.96461 4.49002 5.97469 6.187C4.38444 8.90371 5.16878 12.3818 5.53935 15.4597L11.0657 20.9849C16.4136 20.7009 20.6997 16.4154 20.9845 11.0677L15.3689 5.452Z" fill="#501A96"/>
<path d="M12.9291 4.48975H8.07057C6.09608 4.48975 4.48975 6.09608 4.48975 8.07057V12.9291C4.48975 14.9035 6.09608 16.51 8.07061 16.51H12.9291C14.9035 16.51 16.51 14.9036 16.51 12.9291V8.07057C16.5099 6.09608 14.9036 4.48975 12.9291 4.48975ZM15.3007 12.9291C15.3007 14.2389 14.2389 15.3007 12.9291 15.3007H8.07061C6.76082 15.3007 5.69901 14.2389 5.69901 12.9291V8.07061C5.69901 6.76082 6.76082 5.69897 8.07061 5.69897H12.9291C14.2389 5.69897 15.3007 6.76086 15.3007 8.07061V12.9291Z" fill="white"/>
<path d="M10.5 7.39111C8.78581 7.39111 7.39111 8.78581 7.39111 10.5C7.39111 12.2141 8.78581 13.6088 10.5 13.6088C12.2142 13.6088 13.6088 12.2142 13.6088 10.5C13.6088 8.78581 12.2142 7.39111 10.5 7.39111ZM10.5 12.3996C9.45088 12.3996 8.60034 11.5492 8.60034 10.5C8.60034 9.45084 9.45088 8.60034 10.5 8.60034C11.5492 8.60034 12.3996 9.4508 12.3996 10.5C12.3996 11.5492 11.5492 12.3996 10.5 12.3996Z" fill="white"/>
<path d="M14.3601 7.4144C14.3601 7.82579 14.0265 8.15937 13.6151 8.15937C13.2037 8.15937 12.8701 7.82579 12.8701 7.4144C12.8701 7.00297 13.2037 6.66943 13.6151 6.66943C14.0266 6.66943 14.3601 7.00289 14.3601 7.4144Z" fill="#D1D1D1"/>
<path d="M12.9294 4.48975H10.4766V5.69897H12.9294C14.2392 5.69897 15.301 6.76086 15.301 8.07061V12.9291C15.301 14.2389 14.2392 15.3007 12.9294 15.3007H10.4766V16.51H12.9294C14.9038 16.51 16.5102 14.9036 16.5102 12.9291V8.07057C16.5102 6.09608 14.9038 4.48975 12.9294 4.48975Z" fill="#D1D1D1"/>
<path d="M10.5001 7.39111C10.4922 7.39111 10.4845 7.39169 10.4766 7.39169V8.60091C10.4844 8.60083 10.4922 8.60034 10.5001 8.60034C11.5492 8.60034 12.3997 9.4508 12.3997 10.5C12.3997 11.5492 11.5493 12.3996 10.5001 12.3996C10.4922 12.3996 10.4844 12.3991 10.4766 12.399V13.6082C10.4845 13.6083 10.4922 13.6088 10.5001 13.6088C12.2143 13.6088 13.6089 12.2142 13.6089 10.5C13.6089 8.78581 12.2143 7.39111 10.5001 7.39111Z" fill="#D1D1D1"/>
</svg>
