<svg width="88" height="88" fill="none" xmlns="http://www.w3.org/2000/svg"><circle opacity=".08" cx="44" cy="44" r="44" fill="#E64D2E"/><path d="M41.98 22a3.783 3.783 0 00-3.779 3.78v1.343l2.52 1.26h2.52l2.519-1.26v-1.344A3.783 3.783 0 0041.98 22z" fill="#FF6A4D"/><path d="M45.76 27.123v-1.344A3.783 3.783 0 0041.98 22v6.383h1.26l2.52-1.26z" fill="#E64D2E"/><path d="M23 59.96c.584 2.876 3.252 5.04 6.299 5.04 3.047 0 5.799-2.164 6.383-5.04l-2.737-1.259h-8.196L23 59.961z" fill="#474F54"/><path d="M29.299 62.48a3.783 3.783 0 01-3.78-3.779 3.783 3.783 0 013.78-3.78c2.084 0 3.863 1.696 3.863 3.78 0 2.084-1.78 3.78-3.863 3.78z" fill="#F2F9FF"/><path d="M35.682 37.285h-7.643l-2.52 2.52v7.558l2.52 1.26h7.643l3.779-1.26V40.56l-1.26-.755-2.52-2.52z" fill="#DC780B"/><path d="M25.52 34.766v5.039H38.2l1.26-.652-1.26-.608v-3.78H25.52z" fill="#FABE2C"/><path d="M43.24 59.96H23v-1.259c0-4.87 4.032-8.818 8.902-8.818l2.1-1.26H45.76v9.238l-2.52 2.1z" fill="#FF6A4D"/><path d="M23 47.363h17.72v2.52H23v-2.52z" fill="#32393F"/><path d="M49.54 53.738v4.736l-1.26 1.487h-5.04V49.883h-2.52a2.527 2.527 0 01-2.519-2.52v-6.298h7.559v3.779a2.527 2.527 0 012.52 2.52v5.038l1.26 1.336z" fill="#575F64"/><path d="M49.54 53.738v4.736l-1.26 1.487h-5.04V49.883h-1.26v-8.819h3.78v3.78a2.527 2.527 0 012.52 2.52v5.038l1.26 1.336z" fill="#474F54"/><path d="M45.76 39.805v-1.26a3.783 3.783 0 00-3.78-3.78 3.783 3.783 0 00-3.779 3.78v2.52a3.78 3.78 0 003.78 3.779h10.162a3.78 3.78 0 003.779-3.78v-1.26H45.76z" fill="#FF6A4D"/><path d="M55.922 41.065v-1.26H45.76v-1.26a3.783 3.783 0 00-3.78-3.78v10.079h10.163a3.78 3.78 0 003.779-3.78z" fill="#E64D2E"/><path d="M43.24 28.383h-2.52l-2.519 1.26v1.26c0 2.083 1.696 3.863 3.78 3.863 2.084 0 3.779-1.78 3.779-3.864v-1.26l-2.52-1.26z" fill="#FFE1BA"/><path d="M45.76 30.902v-1.26l-2.52-1.26h-1.26v6.384c2.085 0 3.78-1.78 3.78-3.864z" fill="#FFBFAB"/><path d="M41.98 27.123h-3.779v2.52H48.28v-2.52H41.98z" fill="#474F54"/><path d="M41.98 27.123h6.3v2.52h-6.3v-2.52z" fill="#32393F"/><path d="M59.394 47.645l-.965-6.759-5.027-2.341v10.078c0 1.987-1.712 3.78-3.863 3.78h-1.26v7.558H63.48L66 58.7v-2.52c0-4.03-2.78-7.543-6.606-8.536z" fill="#E64D2E"/><path d="M60.96 42.324h-3.778a3.784 3.784 0 01-3.78-3.78 3.784 3.784 0 013.78-3.778h3.779v7.558z" fill="#FF6A4D"/><path d="M60.08 52.44l-.367 1.4-2.129-1.045c-2.43.874-4.182 3.18-4.182 5.906a6.306 6.306 0 006.3 6.299A6.306 6.306 0 0066 58.701c0-3.343-2.626-6.06-5.92-6.26z" fill="#32393F"/><path d="M59.701 54.922a3.783 3.783 0 00-3.78 3.78 3.783 3.783 0 003.78 3.779 3.783 3.783 0 003.78-3.78 3.783 3.783 0 00-3.78-3.78z" fill="#DFE7F4"/><path d="M60.949 58.523l-.87-6.082c-.127-.008-.248-.039-.378-.039-.746 0-1.452.154-2.117.393l.87 6.085 2.495-.357z" fill="#C7CFE1"/></svg>