<svg width="88" height="88" fill="none" xmlns="http://www.w3.org/2000/svg"><circle opacity=".1" cx="44" cy="44" r="44" fill="#DC780B"/><path d="M44.283 18.002v51.996C58.513 69.848 70 58.265 70 44S58.512 18.153 44.283 18.002z" fill="#FFBB54"/><path d="M44.282 18.002A24.186 24.186 0 0044 18c-14.36 0-26 11.64-26 26s11.64 26 26 26l.282-.002C56.2 69.818 65.816 58.248 65.816 44c0-14.247-9.615-25.818-21.532-25.998z" fill="#FFD45A"/><path d="M54.306 40.882l-10.173 13h10.451a13.385 13.385 0 002.86-8.292v-1.57a3.148 3.148 0 00-3.138-3.138z" fill="#B74147"/><path d="M33.694 40.882a3.148 3.148 0 00-3.139 3.139v1.57c0 3.128 1.068 6.007 2.86 8.291l19.571-1.707c.84-1.947 1.32-4.193 1.32-6.585v-1.569l-20.612-3.139z" fill="#FF3C1F"/><path d="M52.986 52.175l-8.853 6.859a13.42 13.42 0 0010.451-5.152 13.482 13.482 0 00-1.598-1.707z" fill="#FA4087"/><path d="M52.987 52.175c-1.746 4.048-5.052 6.796-8.854 6.859l-.133.001a13.42 13.42 0 01-10.584-5.153A13.423 13.423 0 0144 48.73c3.455 0 6.605 1.304 8.987 3.446z" fill="#FA71A3"/><path d="M51.167 40.882l-1.57 4.708h3.14c.863 0 1.569-.706 1.569-1.57v-3.138h-3.139z" fill="#FFF7DF"/><path d="M51.167 40.882v3.139c0 .863-.706 1.57-1.57 1.57H35.265c-.863 0-1.57-.707-1.57-1.57v-3.139h17.473z" fill="#fff"/><path d="M44.785 62.959h-1.57a.785.785 0 110-1.57h1.57a.785.785 0 110 1.57z" fill="#FFBB54"/><path d="M52.736 29.896c-.863 0-1.569.706-1.569 1.57v4.708c0 .863.706 1.57 1.57 1.57.863 0 1.569-.707 1.569-1.57v-4.708c0-.864-.706-1.57-1.57-1.57zM35.264 29.897c-.863 0-1.57.706-1.57 1.57v4.708c0 .863.707 1.57 1.57 1.57.863 0 1.57-.707 1.57-1.57v-4.708c0-.864-.707-1.57-1.57-1.57z" fill="#474867"/></svg>