<svg width="88" height="88" fill="none" xmlns="http://www.w3.org/2000/svg"><circle opacity=".1" cx="44" cy="44" r="44" fill="#8FA632"/><path d="M25.942 28.136a1.757 1.757 0 011.7-2.517 2.992 2.992 0 015.713 1.038 1.731 1.731 0 11-1.369 2.707 2.992 2.992 0 01-3.729-.398 1.756 1.756 0 01-2.315-.83z" fill="url(#paint0_linear)"/><path d="M26.384 24.937a1.468 1.468 0 100-2.937 1.468 1.468 0 000 2.937z" fill="url(#paint1_linear)"/><path d="M35.108 36.778h-3.542a.907.907 0 01-.907-.907v-5.649c0-.501.406-.907.907-.907h3.542c.5 0 .907.406.907.907v5.649a.907.907 0 01-.907.907z" fill="url(#paint2_linear)"/><path d="M33.986 52.885H23.41v13.572h10.576V52.885z" fill="url(#paint3_linear)"/><path d="M34.426 55.793H23.434a.671.671 0 01-.643-.866l1.091-3.593a.67.67 0 01.642-.476h9.902v4.935z" fill="url(#paint4_linear)"/><path d="M65.535 52.885H54.96v13.572h10.575V52.885z" fill="url(#paint5_linear)"/><path d="M65.535 62.901l-7.105-7.106h-3.47v10.662h10.575V62.9z" fill="url(#paint6_linear)"/><path d="M54.52 55.793h10.992c.45 0 .773-.435.642-.866l-1.09-3.593a.67.67 0 00-.643-.476H54.52v4.935z" fill="url(#paint7_linear)"/><path d="M58.436 38.377v28.08H30.513v-28.08l13.96-13.687 13.963 13.687z" fill="url(#paint8_linear)"/><path d="M30.513 38.377v1.609l26.47 26.47h1.453v-28.08L44.473 24.692l-13.96 13.686z" fill="url(#paint9_linear)"/><path d="M58.436 46.863v19.594H49.62L30.513 47.349v-.486h27.923z" fill="url(#paint10_linear)"/><path d="M54.121 66.457H40.465L32.96 58.95a1.201 1.201 0 01-.55-1.008V51.9c0-.662.538-1.2 1.2-1.2h4.356c.422 0 .794.22 1.008.55l-.032.026 15.18 15.18z" fill="url(#paint11_linear)"/><path d="M37.965 58.439h-4.356a.497.497 0 01-.497-.498v-6.04c0-.275.222-.498.497-.498h4.355c.275 0 .498.223.498.498v6.04a.497.497 0 01-.498.498z" fill="#503837"/><path d="M37.965 59.143h-4.356a1.203 1.203 0 01-1.2-1.201V51.9c0-.663.538-1.202 1.2-1.202h4.356c.662 0 1.201.54 1.201 1.202v6.04c0 .663-.539 1.202-1.201 1.202zm-4.149-1.408h3.942v-5.628h-3.942v5.628z" fill="#fff"/><path d="M58.437 53.191v13.266h-.429l-7.506-7.507a1.2 1.2 0 01-.552-1.008V51.9c0-.662.54-1.2 1.202-1.2h4.355c.422 0 .794.22 1.009.55l.017.013-.012.013 1.916 1.915z" fill="url(#paint12_linear)"/><path d="M55.507 58.439h-4.355a.497.497 0 01-.498-.498v-6.04c0-.275.223-.498.498-.498h4.355c.275 0 .497.223.497.498v6.04a.497.497 0 01-.497.498z" fill="#503837"/><path d="M55.507 59.143H51.15a1.203 1.203 0 01-1.2-1.201V51.9c0-.663.538-1.202 1.2-1.202h4.356c.662 0 1.201.54 1.201 1.202v6.04c0 .663-.539 1.202-1.201 1.202zm-4.149-1.408H55.3v-5.628h-3.942v5.628z" fill="#fff"/><path d="M41.565 66.456V51.202c0-.673.545-1.218 1.218-1.218h3.383c.673 0 1.218.545 1.218 1.218v15.254h-5.82z" fill="#816965"/><path d="M48.105 66.456h-1.441V51.617a.916.916 0 00-.913-.913h-2.552a.913.913 0 00-.913.913v14.84h-1.441V50.663c0-.773.627-1.4 1.4-1.4h4.459c.774 0 1.401.627 1.401 1.4v15.792z" fill="#503837"/><path d="M43.443 56.367a.657.657 0 100-1.315.657.657 0 000 1.315z" fill="#fff"/><path d="M58.437 62.612H30.512v3.844h27.925v-3.844z" fill="#654E48"/><path d="M30.207 64.954c0 .53-.1 1.037-.284 1.502h-7.64A4.088 4.088 0 0122 64.954a4.104 4.104 0 018.207 0z" fill="url(#paint13_linear)"/><path d="M32.852 65.367c0 .384-.072.752-.205 1.09h-5.542a2.966 2.966 0 01-.206-1.09 2.976 2.976 0 115.953 0z" fill="url(#paint14_linear)"/><path d="M66.945 64.705c0 .618-.117 1.209-.33 1.751H57.71a4.768 4.768 0 01-.331-1.751 4.784 4.784 0 019.566 0z" fill="url(#paint15_linear)"/><path d="M58.436 42.394v14.882L40.474 39.314a1.211 1.211 0 01-.59-1.038V34.9a4.593 4.593 0 014.589-4.587c1.37 0 2.6.605 3.442 1.559l10.52 10.52z" fill="url(#paint16_linear)"/><path d="M56.39 40.946H32.917c-.56 0-1.015.455-1.015 1.015v4.506h.705v-4.506c0-.171.139-.31.31-.31h1.404v4.816h.705V41.65h2.094v4.816h.705V41.65h2.095v4.816h.705V41.65h2.094v4.816h.705V41.65h2.095v4.816h.705V41.65h2.094v4.816h.705V41.65h2.094v4.816h.706V41.65h2.094v4.816h.705V41.65h1.766c.17 0 .31.139.31.31v4.506h.705v-4.506c0-.56-.455-1.015-1.015-1.015z" fill="#654E48"/><path d="M59.015 45.736v2.26a.608.608 0 01-.608.608H30.539a.608.608 0 01-.608-.608v-2.26c0-.336.272-.609.608-.609h27.867c.337 0 .609.273.609.608z" fill="url(#paint17_linear)"/><path d="M63.435 40.825l-18.03-18.036a1.316 1.316 0 00-1.86 0L25.51 40.823a.86.86 0 000 1.218l.769.768a.86.86 0 001.218 0L44.23 26.076a.346.346 0 01.49 0L61.449 42.81a.86.86 0 001.217 0l.769-.769a.86.86 0 000-1.217z" fill="url(#paint18_linear)"/><path d="M45.406 22.79a1.312 1.312 0 00-.93-.386v3.57c.088 0 .176.035.244.102l16.73 16.735a.86.86 0 001.216 0l.77-.769a.86.86 0 000-1.217l-18.03-18.036z" fill="url(#paint19_linear)"/><path d="M47.846 38.757H41.1a.482.482 0 01-.482-.482v-3.374a3.856 3.856 0 117.711 0v3.374a.482.482 0 01-.482.482z" fill="#654E48"/><path d="M44.473 30.314a4.593 4.593 0 00-4.588 4.587v3.374c0 .67.545 1.214 1.214 1.214h6.748c.669 0 1.213-.545 1.213-1.214V34.9a4.593 4.593 0 00-4.587-4.587zm3.098 4.197h-2.366v-2.646a3.13 3.13 0 012.366 2.646zm-3.83-2.646v2.646h-2.366a3.13 3.13 0 012.366-2.646zm-2.392 4.11h2.392v2.05h-2.392v-2.05zm3.856 2.05v-2.05h2.391v2.05h-2.391z" fill="#fff"/><defs><linearGradient id="paint0_linear" x1="24.244" y1="24.82" x2="41.536" y2="30.836" gradientUnits="userSpaceOnUse"><stop stop-color="#E2EDF2"/><stop offset="1" stop-color="#9FC7E2"/></linearGradient><linearGradient id="paint1_linear" x1="25.908" y1="23.304" x2="28.454" y2="24.19" gradientUnits="userSpaceOnUse"><stop stop-color="#E2EDF2"/><stop offset="1" stop-color="#9FC7E2"/></linearGradient><linearGradient id="paint2_linear" x1="31.902" y1="31.613" x2="33.679" y2="33.389" gradientUnits="userSpaceOnUse"><stop stop-color="#816965"/><stop offset="1" stop-color="#654E48"/></linearGradient><linearGradient id="paint3_linear" x1="28.698" y1="54.605" x2="28.698" y2="66.657" gradientUnits="userSpaceOnUse"><stop stop-color="#FFE7A5"/><stop offset=".966" stop-color="#FFBF5C"/></linearGradient><linearGradient id="paint4_linear" x1="28.594" y1="51.483" x2="28.594" y2="55.867" gradientUnits="userSpaceOnUse"><stop stop-color="#FF5D00"/><stop offset="1" stop-color="#D54003"/></linearGradient><linearGradient id="paint5_linear" x1="60.247" y1="54.605" x2="60.247" y2="66.657" gradientUnits="userSpaceOnUse"><stop stop-color="#FFE7A5"/><stop offset=".966" stop-color="#FFBF5C"/></linearGradient><linearGradient id="paint6_linear" x1="60" y1="64.072" x2="49.038" y2="54.303" gradientUnits="userSpaceOnUse"><stop stop-color="#FF5D00" stop-opacity="0"/><stop offset="1" stop-color="#D54003"/></linearGradient><linearGradient id="paint7_linear" x1="60.351" y1="51.483" x2="60.351" y2="55.867" gradientUnits="userSpaceOnUse"><stop stop-color="#FF5D00"/><stop offset="1" stop-color="#D54003"/></linearGradient><linearGradient id="paint8_linear" x1="44.474" y1="45.863" x2="44.474" y2="75.429" gradientUnits="userSpaceOnUse"><stop stop-color="#FFE7A5"/><stop offset=".966" stop-color="#FFBF5C"/><stop offset="1" stop-color="#DB9E36"/></linearGradient><linearGradient id="paint9_linear" x1="41.456" y1="36.164" x2="33.373" y2="28.081" gradientUnits="userSpaceOnUse"><stop stop-color="#FF5D00" stop-opacity="0"/><stop offset="1" stop-color="#D54003"/></linearGradient><linearGradient id="paint10_linear" x1="45.525" y1="53.631" x2="42.362" y2="33.999" gradientUnits="userSpaceOnUse"><stop stop-color="#FF5D00" stop-opacity="0"/><stop offset="1" stop-color="#D54003"/></linearGradient><linearGradient id="paint11_linear" x1="41.227" y1="60.361" x2="28.63" y2="47.764" gradientUnits="userSpaceOnUse"><stop stop-color="#FF5D00" stop-opacity="0"/><stop offset="1" stop-color="#D54003"/></linearGradient><linearGradient id="paint12_linear" x1="56.699" y1="58.292" x2="48.634" y2="50.226" gradientUnits="userSpaceOnUse"><stop stop-color="#FF5D00" stop-opacity="0"/><stop offset="1" stop-color="#D54003"/></linearGradient><linearGradient id="paint13_linear" x1="23.789" y1="62.4" x2="28.853" y2="67.462" gradientUnits="userSpaceOnUse"><stop stop-color="#9EB644"/><stop offset="1" stop-color="#738611"/></linearGradient><linearGradient id="paint14_linear" x1="28.197" y1="63.513" x2="31.87" y2="67.186" gradientUnits="userSpaceOnUse"><stop stop-color="#9EB644"/><stop offset="1" stop-color="#738611"/></linearGradient><linearGradient id="paint15_linear" x1="59.464" y1="61.727" x2="65.366" y2="67.63" gradientUnits="userSpaceOnUse"><stop stop-color="#9EB644"/><stop offset="1" stop-color="#738611"/></linearGradient><linearGradient id="paint16_linear" x1="50.888" y1="42.307" x2="37.975" y2="29.393" gradientUnits="userSpaceOnUse"><stop stop-color="#FF5D00" stop-opacity="0"/><stop offset="1" stop-color="#D54003"/></linearGradient><linearGradient id="paint17_linear" x1="44.472" y1="45.498" x2="44.472" y2="50.11" gradientUnits="userSpaceOnUse"><stop stop-color="#FF5D00"/><stop offset="1" stop-color="#D54003"/></linearGradient><linearGradient id="paint18_linear" x1="44.472" y1="34.603" x2="44.472" y2="50.263" gradientUnits="userSpaceOnUse"><stop stop-color="#FF5D00"/><stop offset="1" stop-color="#D54003"/></linearGradient><linearGradient id="paint19_linear" x1="57.941" y1="37.384" x2="48.476" y2="27.919" gradientUnits="userSpaceOnUse"><stop stop-color="#FF5D00" stop-opacity="0"/><stop offset="1" stop-color="#D54003"/></linearGradient></defs></svg>