<svg width="21" height="21" viewBox="0 0 21 21" fill="none" xmlns="http://www.w3.org/2000/svg">
<g clip-path="url(#clip0)">
<path d="M10.5009 20.9998C16.2998 20.9998 21.0008 16.2988 21.0008 10.4999C21.0008 4.70097 16.2998 0 10.5009 0C4.70194 0 0.000976562 4.70097 0.000976562 10.4999C0.000976562 16.2988 4.70194 20.9998 10.5009 20.9998Z" fill="#55ACEE"/>
<path d="M16.9318 7.54607C16.4819 7.74559 15.9979 7.88054 15.4902 7.94081C16.0085 7.6303 16.4063 7.13897 16.594 6.55257C16.109 6.84025 15.5717 7.04895 15.0002 7.16143C14.5424 6.67385 13.8901 6.36914 13.1678 6.36914C11.782 6.36914 10.6581 7.4931 10.6581 8.87891C10.6581 9.07563 10.6803 9.26711 10.7234 9.45091C8.63755 9.34628 6.78812 8.34716 5.55017 6.82827C5.33418 7.19887 5.21027 7.6303 5.21027 8.09018C5.21027 8.96071 5.65368 9.72923 6.32674 10.1792C5.91553 10.1663 5.52827 10.0534 5.19005 9.86493C5.18987 9.8756 5.18987 9.88627 5.18987 9.89675C5.18987 11.1128 6.05534 12.1271 7.20326 12.3575C6.99288 12.4151 6.77071 12.4456 6.54218 12.4456C6.38009 12.4456 6.22305 12.4301 6.06994 12.4009C6.38926 13.3978 7.31594 14.1234 8.41445 14.1438C7.55533 14.8171 6.4733 15.2182 5.29712 15.2182C5.09497 15.2182 4.8947 15.2064 4.69873 15.183C5.80884 15.8954 7.12839 16.3107 8.54565 16.3107C13.162 16.3107 15.6866 12.4864 15.6866 9.16959C15.6866 9.06084 15.6842 8.95247 15.6793 8.84504C16.1701 8.49128 16.5955 8.04937 16.9318 7.54607Z" fill="#F1F2F2"/>
</g>
<defs>
<clipPath id="clip0">
<rect width="21" height="21" fill="white"/>
</clipPath>
</defs>
</svg>
