<svg width="21" height="21" viewBox="0 0 21 21" fill="none" xmlns="http://www.w3.org/2000/svg">
<path d="M10.5 21C16.299 21 21 16.299 21 10.5C21 4.70101 16.299 0 10.5 0C4.70101 0 0 4.70101 0 10.5C0 16.299 4.70101 21 10.5 21Z" fill="#D22215"/>
<path d="M15.785 6.98633C15.4701 7.08243 15.1418 7.16499 14.813 7.24723C12.4797 7.74216 9.36854 6.39874 8.02511 8.59065C6.90469 10.3336 6.55093 12.5145 5.27637 14.0729L12.0843 20.8808C16.6153 20.195 20.196 16.6137 20.8811 12.0825L15.785 6.98633Z" fill="#A81411"/>
<path d="M14.013 6.24805H6.98709C5.60864 6.24805 4.49121 7.36552 4.49121 8.74393V12.2562C4.49121 13.6346 5.60868 14.7521 6.98709 14.7521H14.013C15.3914 14.7521 16.5089 13.6346 16.5089 12.2562V8.74393C16.5089 7.36552 15.3914 6.24805 14.013 6.24805ZM12.325 10.6709L9.03882 12.2382C8.95121 12.28 8.85002 12.2162 8.85002 12.1192V8.88662C8.85002 8.78819 8.95387 8.72441 9.04157 8.76891L12.3277 10.4342C12.4256 10.4837 12.4238 10.6238 12.325 10.6709Z" fill="white"/>
<path d="M14.0129 6.24805H10.4292V9.47208L12.3277 10.4341C12.4255 10.4836 12.4237 10.6238 12.3249 10.6709L10.4292 11.575V14.7521H14.0129C15.3913 14.7521 16.5087 13.6346 16.5087 12.2562V8.74393C16.5087 7.36552 15.3913 6.24805 14.0129 6.24805Z" fill="#D1D1D1"/>
</svg>
